# xmcd
#
# Track frame offsets: 
#        150
#        16372
#        33325
#        46846
#        63084
#        87973
#        103161
#        118523
#        135988
#        150260
#        165656
#        178407
#        202491
#        216865
#        230900
#        247480
#        263546
#        284348
#        297306
#        316715
#
# Disc length: 4431 seconds
#
# Revision: 3
# Processed by: cddbd v1.5.2PL0 Copyright (c) Steve Scherf et al.
# Submitted via: ExactAudioCopy v0.99pb5
#
DISCID=25114d14
DTITLE=Various Artist - Booom 2009 - Die 1. Hit-Explosion - CD 1
DYEAR=2008
DGENRE=Pop
TTITLE0=P!nk - So what
TTITLE1=Curse mit Silbermond - Bis zum Schluss
TTITLE2=Katy Perry - I kissed a girl
TTITLE3=Peter Fox - Haus am See
TTITLE4=Xavier Naidoo feat. Cassandra Steen - Wann
TTITLE5=Giovanni - Wundervoll - sei bellissima
TTITLE6=Leona Lewis - Forgive me
TTITLE7=Jordin Sparks - Tattoo
TTITLE8=Thomas Godoj - Autopilot
TTITLE9=Kings Of Leon - Sex on fire
TTITLE10=Die Toten Hosen - Strom
TTITLE11=Söhne Mannheims - Das hat die Welt noch nicht gesehen
TTITLE12=Maria Mena - All this time (pick-me-up song)
TTITLE13=Shaggy feat. Akon - What's love
TTITLE14=Flo Rida feat. Will.I.Am - In the ayer
TTITLE15=Kat DeLuna feat. Elephant Man - Whine up
TTITLE16=Chris Brown - Forever
TTITLE17=Das Bo - Dumm aber schlau
TTITLE18=Bushido - Ching Ching
TTITLE19=Sido's Hands On Scooter feat. Kitty Kat and Tony D. - Beweg dei
TTITLE19=n Arsch
EXTD=
EXTT0=
EXTT1=
EXTT2=
EXTT3=
EXTT4=
EXTT5=
EXTT6=
EXTT7=
EXTT8=
EXTT9=
EXTT10=
EXTT11=
EXTT12=
EXTT13=
EXTT14=
EXTT15=
EXTT16=
EXTT17=
EXTT18=
EXTT19=
PLAYORDER=
